<?xml version="1.0" standalone="no"?>
<!DOCTYPE svg PUBLIC "-//W3C//DTD SVG 20010904//EN"
 "http://www.w3.org/TR/2001/REC-SVG-20010904/DTD/svg10.dtd">
<svg version="1.0" xmlns="http://www.w3.org/2000/svg"
 width="640.000000pt" height="640.000000pt" viewBox="0 0 640.000000 640.000000"
 preserveAspectRatio="xMidYMid meet">
<metadata>
Created by potrace 1.14, written by Peter Selinger 2001-2017
</metadata>
<g transform="translate(0.000000,640.000000) scale(0.100000,-0.100000)"
fill="#000000" stroke="none">
<path d="M2290 6303 c-19 -1 -67 -8 -106 -14 l-71 -11 -6 -152 c-3 -83 -4
-225 -3 -316 2 -122 -1 -172 -11 -192 l-13 -28 -153 3 c-101 1 -159 -2 -172
-10 -19 -11 -20 -18 -13 -195 8 -229 2 -471 -12 -499 -9 -16 -17 -19 -33 -14
-12 4 -77 9 -144 12 -98 4 -124 3 -128 -8 -15 -41 -31 -182 -27 -235 2 -34 -1
-70 -6 -81 -15 -27 -101 -44 -162 -33 -68 13 -156 12 -167 -2 -20 -26 -33
-109 -33 -212 0 -57 -2 -110 -5 -118 -4 -11 -89 -13 -453 -12 -443 1 -559 -6
-569 -32 -3 -8 0 -168 6 -356 6 -189 16 -485 22 -658 6 -205 14 -323 22 -339
11 -22 16 -23 69 -17 166 18 173 18 190 4 14 -11 17 -39 21 -185 2 -95 6 -175
8 -177 2 -3 72 -1 154 3 149 9 150 8 171 -15 21 -22 22 -29 17 -167 l-6 -144
42 -16 c28 -12 72 -17 139 -18 53 0 115 -3 137 -7 l40 -7 -3 -91 c-2 -49 1
-108 7 -131 8 -30 8 -55 0 -92 l-11 -51 -82 0 c-46 0 -120 5 -165 11 -45 6
-85 8 -88 5 -5 -5 -5 -109 0 -311 2 -59 1 -60 -23 -57 -49 6 -315 17 -330 14
-13 -3 -15 -28 -15 -150 0 -81 -4 -164 -8 -184 l-8 -36 -75 5 c-58 5 -87 2
-129 -12 l-54 -19 -5 -80 c-4 -45 -13 -218 -21 -386 -8 -168 -18 -347 -21
-398 l-6 -92 3201 0 3201 0 0 68 c0 38 -4 273 -10 523 -5 250 -14 744 -20
1099 -5 355 -13 735 -16 846 l-6 201 -47 16 c-58 21 -165 22 -243 1 -33 -8
-62 -13 -64 -11 -13 13 -26 139 -24 247 11 887 1 1158 -44 1183 -14 7 -64 11
-143 9 l-122 -2 -16 30 c-13 26 -16 151 -18 1054 -1 563 -6 1028 -10 1033 -5
4 -243 9 -529 11 l-520 3 3 -153 c2 -126 0 -160 -14 -192 -17 -38 -18 -39 -60
-32 -65 11 -261 24 -267 19 -3 -3 -5 -71 -6 -152 0 -93 -5 -159 -13 -177 l-12
-30 -114 4 c-158 6 -157 6 -189 -78 -27 -73 -34 -134 -16 -145 6 -3 10 -25 10
-49 0 -71 -9 -74 -202 -75 -159 -1 -168 -1 -178 19 -7 12 -12 82 -13 165 -1
79 -5 146 -9 150 -3 3 -65 9 -137 12 -94 4 -134 3 -145 -6 -12 -10 -19 -6 -40
21 l-27 33 -2 320 c-1 176 -6 326 -10 333 -6 9 -97 12 -405 10 -218 0 -413 -3
-432 -5z m190 -332 c0 -6 -4 -13 -10 -16 -5 -3 -10 -10 -10 -15 0 -5 26 2 59
14 52 21 67 23 142 16 46 -5 101 -11 122 -15 l39 -8 -6 -318 -6 -319 28 -13
c15 -8 78 -17 146 -21 118 -7 186 -24 186 -47 0 -7 -10 -5 -27 7 l-28 17 18
-26 c9 -15 24 -38 33 -51 12 -19 13 -32 5 -63 -19 -70 -25 -189 -11 -198 7 -5
244 -9 526 -9 l512 -1 0 90 c0 50 3 132 7 184 l7 94 173 -6 c134 -6 174 -4
177 6 3 6 2 71 -2 142 -6 124 -5 132 17 167 l23 37 72 -1 c40 0 100 3 134 7
l61 7 31 -48 32 -47 0 94 c0 52 -4 111 -9 132 -5 21 -7 73 -4 117 5 69 9 80
26 86 32 10 300 12 322 2 20 -9 20 -18 19 -1069 l-1 -1059 111 5 c61 3 137 8
168 10 53 4 58 3 82 -26 30 -36 31 -41 11 -78 -12 -25 -14 -118 -14 -622 2
-796 7 -703 -40 -719 -24 -8 -53 -10 -77 -5 -48 9 -518 18 -559 10 l-31 -5 1
-188 0 -187 -44 -3 c-23 -2 -57 2 -74 7 -17 6 -74 14 -128 17 -90 6 -97 5
-108 -13 -6 -13 -9 -73 -6 -165 5 -163 -1 -183 -51 -178 -16 1 -130 3 -254 3
-278 0 -344 -12 -375 -64 -16 -27 -21 -58 -25 -161 -3 -70 -9 -130 -13 -134
-3 -4 -19 -7 -34 -6 -344 9 -629 10 -673 2 -30 -5 -111 -6 -180 -2 l-124 7
-33 59 c-36 64 -39 90 -22 197 7 38 9 72 6 75 -27 27 -592 48 -639 23 -14 -8
-23 -8 -31 0 -6 6 -19 11 -29 11 -11 0 -15 5 -12 15 4 8 1 22 -6 30 -13 16 -9
170 6 257 6 36 6 37 -32 44 -21 4 -178 4 -350 0 l-312 -7 -12 36 c-6 20 -9 43
-5 53 3 9 3 72 -1 139 l-7 123 -41 11 c-41 11 -205 7 -257 -6 -25 -6 -27 -4
-43 55 -14 49 -16 81 -10 164 9 140 5 146 -89 146 -40 -1 -103 -7 -142 -14
-38 -8 -75 -12 -81 -9 -29 11 -39 69 -39 218 0 107 -3 152 -12 158 -7 4 -50 3
-95 -2 -46 -6 -114 -11 -152 -12 l-70 -2 -11 34 c-22 64 -34 372 -21 540 7 87
11 99 40 133 l31 37 345 2 c190 1 353 6 364 11 16 8 17 6 11 -15 -3 -13 -9
-33 -12 -44 -4 -13 11 -4 43 28 l49 49 59 -7 c33 -3 72 -13 87 -21 37 -19 59
-18 60 4 1 9 0 157 0 327 -2 295 -1 312 18 342 l21 33 335 -3 336 -3 -6 319
-5 318 32 54 c18 30 38 55 44 55 6 0 31 -7 54 -15 51 -18 169 -20 205 -3 21
10 24 16 20 42 -14 81 -4 605 13 634 13 22 32 30 32 13z m3882 -5428 c-3 -16
-7 -22 -10 -15 -4 13 4 42 11 42 2 0 2 -12 -1 -27z"/>
<path d="M2102 3821 c-3 -7 -2 -72 1 -143 3 -77 2 -139 -4 -152 -7 -14 -7 -30
0 -46 7 -18 10 -20 10 -7 1 13 10 17 44 17 81 1 192 8 229 15 33 7 38 5 51
-21 8 -16 24 -73 36 -127 l21 -98 -21 -49 c-18 -43 -19 -52 -8 -66 12 -15 30
-16 149 -10 203 10 188 2 183 99 -5 100 -5 81 3 311 6 168 4 194 -12 243 l-19
54 -329 -3 c-265 -2 -330 -6 -334 -17z"/>
</g>
</svg>
